<?xml version="1.0" encoding="utf-8"?>
<!-- Generator: Adobe Illustrator 22.0.1, SVG Export Plug-In . SVG Version: 6.00 Build 0)  -->
<svg version="1.1" id="Camada_1" xmlns="http://www.w3.org/2000/svg" xmlns:xlink="http://www.w3.org/1999/xlink" x="0px" y="0px"
	 viewBox="0 0 237.5 89.9" style="enable-background:new 0 0 237.5 89.9;" xml:space="preserve">
<style type="text/css">
	.st0{fill:#FFFFFF;}
</style>
<g>
	<g>
		<path class="st0" d="M17.5,47.5H0V16.1h17.5v3.2H3.7v10.1h13v3.2h-13v11.6h13.9V47.5z"/>
		<path class="st0" d="M27.5,47.5h-3.6V14.1h3.6V47.5z"/>
		<path class="st0" d="M45,48c-3.5,0-6.2-1.1-8.2-3.2c-2-2.1-3-5.1-3-8.8c0-3.8,0.9-6.8,2.8-9.1s4.4-3.4,7.5-3.4c3,0,5.3,1,7,2.9
			c1.7,1.9,2.6,4.5,2.6,7.7v2.3H37.5c0.1,2.8,0.8,4.9,2.1,6.3c1.3,1.4,3.2,2.1,5.6,2.1c2.5,0,5-0.5,7.5-1.6v3.2
			c-1.3,0.5-2.5,0.9-3.6,1.2S46.6,48,45,48z M44.1,26.5c-1.9,0-3.4,0.6-4.5,1.8c-1.1,1.2-1.8,2.9-2,5.1h12.3c0-2.2-0.5-4-1.5-5.2
			C47.4,27.1,45.9,26.5,44.1,26.5z"/>
		<path class="st0" d="M89.8,47.5V32.2c0-1.9-0.4-3.3-1.2-4.2c-0.8-0.9-2-1.4-3.7-1.4c-2.2,0-3.9,0.6-4.9,1.9
			c-1.1,1.3-1.6,3.2-1.6,5.9v13.2h-3.6V32.2c0-1.9-0.4-3.3-1.2-4.2c-0.8-0.9-2.1-1.4-3.8-1.4c-2.2,0-3.9,0.7-4.9,2
			c-1,1.3-1.6,3.5-1.6,6.6v12.4h-3.6V24h2.9l0.6,3.2h0.2c0.7-1.1,1.6-2,2.8-2.7c1.2-0.6,2.6-1,4.1-1c3.7,0,6.1,1.3,7.2,4h0.2
			c0.7-1.2,1.7-2.2,3.1-2.9c1.3-0.7,2.9-1.1,4.6-1.1c2.7,0,4.7,0.7,6,2.1c1.3,1.4,2,3.6,2,6.6v15.4H89.8z"/>
		<path class="st0" d="M115.2,47.5l-0.7-3.4h-0.2c-1.2,1.5-2.3,2.5-3.5,3c-1.2,0.5-2.6,0.8-4.4,0.8c-2.3,0-4.2-0.6-5.5-1.8
			c-1.3-1.2-2-2.9-2-5.1c0-4.8,3.8-7.3,11.4-7.5l4-0.1V32c0-1.8-0.4-3.2-1.2-4.1c-0.8-0.9-2.1-1.3-3.8-1.3c-2,0-4.2,0.6-6.7,1.8
			l-1.1-2.7c1.2-0.6,2.4-1.1,3.8-1.5c1.4-0.4,2.8-0.5,4.2-0.5c2.8,0,4.9,0.6,6.2,1.9c1.4,1.2,2,3.2,2,6v16.1H115.2z M107.2,45
			c2.2,0,4-0.6,5.2-1.8c1.3-1.2,1.9-2.9,1.9-5.1V36l-3.6,0.1c-2.8,0.1-4.9,0.5-6.1,1.3c-1.3,0.8-1.9,2-1.9,3.6
			c0,1.3,0.4,2.3,1.2,2.9C104.7,44.7,105.8,45,107.2,45z"/>
		<path class="st0" d="M136,23.6c1,0,2,0.1,2.8,0.3l-0.5,3.3c-1-0.2-1.8-0.3-2.6-0.3c-1.9,0-3.5,0.8-4.9,2.3c-1.4,1.5-2,3.5-2,5.8
			v12.6h-3.6V24h2.9l0.4,4.4h0.2c0.9-1.5,1.9-2.7,3.2-3.5C133.1,24,134.5,23.6,136,23.6z"/>
		<path class="st0" d="M150.6,55.8c-1.3,0-2.4-0.2-3.2-0.6v-3.1c1,0.3,2.1,0.4,3.2,0.4c1.4,0,2.5-0.4,3.2-1.3
			c0.7-0.9,1.1-2.1,1.1-3.7V16.1h3.7v31.1c0,2.7-0.7,4.8-2.1,6.3C155.1,55.1,153.2,55.8,150.6,55.8z"/>
		<path class="st0" d="M170.6,34.5v13.1h-3.7V16.1h8.6c3.9,0,6.7,0.7,8.5,2.2c1.8,1.5,2.8,3.7,2.8,6.7c0,4.2-2.1,7-6.3,8.4l8.5,14.1
			h-4.3l-7.6-13.1H170.6z M170.6,31.3h5c2.6,0,4.5-0.5,5.7-1.5c1.2-1,1.8-2.6,1.8-4.6c0-2.1-0.6-3.6-1.8-4.5
			c-1.2-0.9-3.2-1.4-5.9-1.4h-4.8V31.3z"/>
	</g>
	<g>
		<path class="st0" d="M172.3,81.1c-2.3,0-4.1,1.9-4.1,4.1s1.9,4.1,4.1,4.1c2.3,0,4.1-1.9,4.1-4.1S174.6,81.1,172.3,81.1z"/>
		<path class="st0" d="M182.4,80.6c-2.5,0-4.6,2.1-4.6,4.6s2.1,4.6,4.6,4.6s4.6-2.1,4.6-4.6S184.9,80.6,182.4,80.6z"/>
		<path class="st0" d="M202.5,80.6c-2.5,0-4.6,2.1-4.6,4.6s2.1,4.6,4.6,4.6c2.5,0,4.6-2.1,4.6-4.6S205.1,80.6,202.5,80.6z"/>
		<path class="st0" d="M212.6,80.6c-2.5,0-4.6,2.1-4.6,4.6s2.1,4.6,4.6,4.6c2.5,0,4.6-2.1,4.6-4.6S215.2,80.6,212.6,80.6z"/>
		<path class="st0" d="M222.7,80.6c-2.5,0-4.6,2.1-4.6,4.6s2.1,4.6,4.6,4.6s4.6-2.1,4.6-4.6S225.3,80.6,222.7,80.6z"/>
		<path class="st0" d="M152.2,71.5c-2,0-3.7,1.6-3.7,3.7c0,2,1.6,3.7,3.7,3.7c2,0,3.7-1.6,3.7-3.7C155.9,73.2,154.3,71.5,152.2,71.5
			z"/>
		<path class="st0" d="M162.3,71.5c-2,0-3.7,1.6-3.7,3.7c0,2,1.6,3.7,3.7,3.7c2,0,3.7-1.6,3.7-3.7C166,73.2,164.3,71.5,162.3,71.5z"
			/>
		<path class="st0" d="M182.5,79.3c2.3,0,4.1-1.9,4.1-4.1c0-2.3-1.9-4.1-4.1-4.1c-2.3,0-4.1,1.9-4.1,4.1
			C178.4,77.5,180.2,79.3,182.5,79.3z"/>
		<path class="st0" d="M192.6,71c-2.3,0-4.1,1.9-4.1,4.1c0,2.3,1.9,4.1,4.1,4.1c2.3,0,4.1-1.9,4.1-4.1C196.7,72.9,194.9,71,192.6,71
			z"/>
		<path class="st0" d="M202.7,70.6c-2.5,0-4.6,2.1-4.6,4.6c0,2.5,2.1,4.6,4.6,4.6c2.5,0,4.6-2.1,4.6-4.6
			C207.3,72.6,205.2,70.6,202.7,70.6z"/>
		<path class="st0" d="M212.7,70.6c-2.5,0-4.6,2.1-4.6,4.6c0,2.5,2.1,4.6,4.6,4.6c2.5,0,4.6-2.1,4.6-4.6
			C217.3,72.6,215.3,70.6,212.7,70.6z"/>
		<path class="st0" d="M222.8,70.6c-2.5,0-4.6,2.1-4.6,4.6c0,2.5,2.1,4.6,4.6,4.6s4.6-2.1,4.6-4.6C227.4,72.6,225.4,70.6,222.8,70.6
			z"/>
		<path class="st0" d="M232.9,70.6c-2.5,0-4.6,2.1-4.6,4.6c0,2.5,2.1,4.6,4.6,4.6c2.5,0,4.6-2.1,4.6-4.6
			C237.5,72.6,235.4,70.6,232.9,70.6z"/>
		<path class="st0" d="M172.4,68.8c2,0,3.7-1.6,3.7-3.7c0-2-1.6-3.7-3.7-3.7c-2,0-3.7,1.6-3.7,3.7C168.8,67.1,170.4,68.8,172.4,68.8
			z"/>
		<path class="st0" d="M182.5,69.2c2.3,0,4.1-1.9,4.1-4.1c0-2.3-1.9-4.1-4.1-4.1c-2.3,0-4.1,1.9-4.1,4.1
			C178.4,67.4,180.2,69.2,182.5,69.2z"/>
		<path class="st0" d="M192.6,68.8c2,0,3.7-1.6,3.7-3.7c0-2-1.6-3.7-3.7-3.7c-2,0-3.7,1.6-3.7,3.7C188.9,67.1,190.6,68.8,192.6,68.8
			z"/>
		<path class="st0" d="M202.7,69.2c2.3,0,4.1-1.9,4.1-4.1c0-2.3-1.9-4.1-4.1-4.1c-2.3,0-4.1,1.9-4.1,4.1
			C198.5,67.4,200.4,69.2,202.7,69.2z"/>
		<path class="st0" d="M212.7,60.5c-2.5,0-4.6,2.1-4.6,4.6c0,2.5,2.1,4.6,4.6,4.6c2.5,0,4.6-2.1,4.6-4.6
			C217.3,62.6,215.3,60.5,212.7,60.5z"/>
		<path class="st0" d="M232.9,60.5c-2.5,0-4.6,2.1-4.6,4.6c0,2.5,2.1,4.6,4.6,4.6c2.5,0,4.6-2.1,4.6-4.6
			C237.5,62.6,235.4,60.5,232.9,60.5z"/>
		<path class="st0" d="M212.7,50.9c-2.3,0-4.1,1.9-4.1,4.1c0,2.3,1.9,4.1,4.1,4.1c2.3,0,4.1-1.9,4.1-4.1
			C216.9,52.7,215,50.9,212.7,50.9z"/>
		<path class="st0" d="M222.8,50.4c-2.5,0-4.6,2.1-4.6,4.6c0,2.5,2.1,4.6,4.6,4.6s4.6-2.1,4.6-4.6C227.4,52.5,225.4,50.4,222.8,50.4
			z"/>
		<path class="st0" d="M212.5,49.1c2.3,0,4.1-1.9,4.1-4.1c0-2.3-1.9-4.1-4.1-4.1c-2.3,0-4.1,1.9-4.1,4.1
			C208.4,47.2,210.2,49.1,212.5,49.1z"/>
		<path class="st0" d="M222.6,40.8c-2.3,0-4.1,1.9-4.1,4.1c0,2.3,1.9,4.1,4.1,4.1c2.3,0,4.1-1.9,4.1-4.1
			C226.7,42.7,224.9,40.8,222.6,40.8z"/>
		<path class="st0" d="M232.7,49.5c2.5,0,4.6-2.1,4.6-4.6c0-2.5-2.1-4.6-4.6-4.6c-2.5,0-4.6,2.1-4.6,4.6
			C228.1,47.5,230.1,49.5,232.7,49.5z"/>
		<path class="st0" d="M212.4,38.5c2,0,3.7-1.6,3.7-3.7c0-2-1.6-3.7-3.7-3.7c-2,0-3.7,1.6-3.7,3.7C208.7,36.9,210.4,38.5,212.4,38.5
			z"/>
		<path class="st0" d="M222.5,39c2.3,0,4.1-1.9,4.1-4.1s-1.9-4.1-4.1-4.1c-2.3,0-4.1,1.9-4.1,4.1S220.2,39,222.5,39z"/>
		<path class="st0" d="M232.6,30.7c-2.3,0-4.1,1.9-4.1,4.1s1.9,4.1,4.1,4.1c2.3,0,4.1-1.9,4.1-4.1S234.8,30.7,232.6,30.7z"/>
		<path class="st0" d="M222.6,28.4c2,0,3.7-1.6,3.7-3.7c0-2-1.6-3.7-3.7-3.7c-2,0-3.7,1.6-3.7,3.7C218.9,26.8,220.6,28.4,222.6,28.4
			z"/>
		<path class="st0" d="M232.7,20.6c-2.3,0-4.1,1.9-4.1,4.1s1.9,4.1,4.1,4.1c2.3,0,4.1-1.9,4.1-4.1S235,20.6,232.7,20.6z"/>
		<path class="st0" d="M232.7,10.6c-2.3,0-4.1,1.9-4.1,4.1c0,2.3,1.9,4.1,4.1,4.1c2.3,0,4.1-1.9,4.1-4.1
			C236.8,12.4,235,10.6,232.7,10.6z"/>
		<path class="st0" d="M232.7,9.2c2.5,0,4.6-2.1,4.6-4.6c0-2.5-2.1-4.6-4.6-4.6c-2.5,0-4.6,2.1-4.6,4.6
			C228.1,7.2,230.1,9.2,232.7,9.2z"/>
	</g>
</g>
</svg>
